<?xml version="1.0" standalone="no"?>
<!DOCTYPE svg PUBLIC "-//W3C//DTD SVG 20010904//EN"
 "http://www.w3.org/TR/2001/REC-SVG-20010904/DTD/svg10.dtd">
<svg version="1.0" xmlns="http://www.w3.org/2000/svg"
 width="12" height="12" viewBox="0 0 12 12"
 preserveAspectRatio="xMidYMid meet">
<metadata>
Created by potrace 1.10, written by Peter Selinger 2001-2011
</metadata>
<g transform="translate(0.000000,300.000000) scale(0.100000,-0.100000)"
fill="#000000" stroke="none">
<path d="M1430 2353 c-436 -38 -797 -316 -866 -669 -41 -211 40 -467 195 -619
28 -27 41 -48 41 -66 0 -15 -16 -93 -35 -173 -19 -81 -35 -157 -35 -170 0 -25
28 -56 51 -56 8 0 119 42 246 93 l233 93 77 -14 c113 -20 342 -11 453 18 183
48 345 137 469 259 83 80 140 166 182 275 28 71 33 96 37 201 5 139 -8 207
-62 322 -101 212 -295 371 -561 456 -124 40 -302 61 -425 50z m315 -63 c409
-83 695 -382 698 -730 1 -110 -15 -174 -69 -287 -69 -140 -188 -260 -344 -345
-198 -109 -473 -154 -689 -113 l-81 16 -228 -92 c-125 -50 -235 -95 -245 -101
-10 -5 -21 -8 -23 -5 -2 2 14 75 35 163 62 250 63 222 -8 293 -258 263 -264
644 -14 921 156 172 379 273 673 304 61 6 202 -5 295 -24z"/>
<path d="M1320 2210 c-190 -40 -333 -114 -455 -235 -125 -124 -187 -259 -186
-408 0 -175 60 -308 199 -445 74 -72 73 -59 26 -246 -13 -55 -23 -101 -21
-102 1 -2 86 31 187 72 l185 75 70 -17 c104 -24 296 -22 410 4 188 44 319 114
440 236 299 300 228 720 -160 955 -187 113 -471 159 -695 111z m430 -48 c362
-92 592 -356 567 -651 -20 -246 -242 -469 -547 -552 -102 -28 -292 -36 -413
-18 -51 8 -103 13 -116 11 -13 -2 -79 -25 -147 -53 -69 -27 -131 -49 -138 -49
-15 0 -15 0 9 103 9 38 13 82 10 98 -4 17 -39 65 -85 114 -119 128 -170 247
-170 395 0 152 47 257 170 380 47 47 111 100 143 119 79 46 217 97 313 115
104 20 301 14 404 -12z"/>
</g>
</svg>
